PathFileType	4	(X/Y/Z)	52_2_53_p1_0-330_filt_butterworth.trc
DataRate	CameraRate	NumFrames	NumMarkers	Units	OrigDataRate	OrigDataStartFrame	OrigNumFrames
60.0	60.0	7	27	m	60.0	123	330
Frame#	Time	RHip			RKnee			RAnkle			RBigToe			RSmallToe			RHeel			LHip			LKnee			LAnkle			LBigToe			LSmallToe			LHeel			Neck			Head			Nose			RShoulder			RElbow			RWrist			RThumb			RIndex			RPinky			LShoulder			LElbow			LWrist			LThumb			LIndex			LPinky			
		X1	Y1	Z1	X2	Y2	Z2	X3	Y3	Z3	X4	Y4	Z4	X5	Y5	Z5	X6	Y6	Z6	X7	Y7	Z7	X8	Y8	Z8	X9	Y9	Z9	X10	Y10	Z10	X11	Y11	Z11	X12	Y12	Z12	X13	Y13	Z13	X14	Y14	Z14	X15	Y15	Z15	X16	Y16	Z16	X17	Y17	Z17	X18	Y18	Z18	X19	Y19	Z19	X20	Y20	Z20	X21	Y21	Z21	X22	Y22	Z22	X23	Y23	Z23	X24	Y24	Z24	X25	Y25	Z25	X26	Y26	Z26	X27	Y27	Z27	
123	2.05	0.009576371992581462	0.7149877870117828	0.7454234138188314	0.029945284968096564	0.2740429289203951	0.7630576152720829	0.04100671906901198	-0.12808666335402183	0.7588056583905936	0.004019739790709557	-0.14987949482207222	0.6012938695458361	0.07154961224199857	-0.13947770393520423	0.6048922426909376	0.013305702193744556	-0.21880889800178774	0.8546084042648181	-0.1915097609396085	0.6955805647230047	0.7680630881103419	-0.1829528185361273	0.2599063932566828	0.7798938277956435	-0.16001282404672915	-0.13121508522210817	0.7617666166634327	-0.15208242748832335	-0.13435712017000895	0.5965986498138536	-0.20956675734710395	-0.15522350178441635	0.6356289255775427	-0.14467304918760515	-0.21025844467628182	0.8206004650023915	-0.09999943989367768	1.1988360025962232	0.776179627888052	-0.10598269769644442	1.4613511203803842	0.7538730944280491	-0.10376940387532746	1.320016873589498	0.706483634870219	0.04641077007884925	1.1196233973881118	0.7551788337155951	0.10965650972932128	0.8314631171994691	0.7607164626302342	0.11291070096856831	0.613051209628271	0.6281888993169886	0.05847558015050591	0.48715343235418573	0.6261015162688179	0.08784799279465091	0.4520369172577093	0.6319528079782946	0.12712790477102298	0.45952834058836967	0.6366309975911837	-0.2516068331329452	1.122037444996401	0.8010568036441206	-0.29455384274010105	0.8495982665869601	0.747518973565704	-0.2382631455129084	0.6536325329094392	0.6464520470991707	-0.18434290271796047	0.57902618850164	0.5955928629812144	-0.19864732560347276	0.5392132375555996	0.567663383736384	-0.24644963975008397	0.5306654115220204	0.6365800147793945	
124	2.066666666666667	0.010911501371533128	0.7152567471134594	0.744764725872687	0.030657927845762142	0.27057715427992945	0.7631233530944044	0.041112115188939855	-0.12813431612701257	0.7587208439373931	0.003975897368502193	-0.14984529785350184	0.6012519653268972	0.07154451649290275	-0.13962237134458225	0.6050953749993218	0.013255708708214409	-0.21874852123884567	0.8546523673366176	-0.19094024570716817	0.6958262631364852	0.7664959534185308	-0.18316839156848078	0.25953546952924145	0.7795471228503217	-0.15987678952962164	-0.13162695592979562	0.7619491519036267	-0.15179692532909536	-0.1350683261082323	0.5965800179694585	-0.2095318813575883	-0.15526964982692376	0.6355871213473577	-0.14466802099681414	-0.2103194419822533	0.8206492680082434	-0.10025123919558435	1.1994900439473395	0.7762152697010682	-0.10627922205743767	1.4614950898356391	0.7528304764097677	-0.10552737174297727	1.3199188685969419	0.7063320178134576	0.046622187504620105	1.119497346887209	0.7557477605250784	0.11361496477721034	0.832519644062411	0.7599951499553571	0.11984937043477664	0.6165294493566666	0.6276124032520314	0.06488475889341697	0.48330527559821324	0.6422637586060351	0.09482206478412358	0.45116124235391863	0.6377343335334307	0.1345457059974871	0.46364571352433437	0.6336883523665533	-0.2515337543224858	1.121928929545272	0.8012560153504417	-0.29534415130895286	0.851113599324295	0.747030303786831	-0.243024425178256	0.6492016387621405	0.6546474194213744	-0.1906328833087318	0.5792611448489384	0.5921834761929068	-0.2009843127724259	0.535039111877311	0.5686129607418112	-0.252095764213496	0.5273661438043198	0.641881386212486	
125	2.083333333333333	0.012291260876326288	0.7154277144107428	0.7444051504497304	0.03148079405166673	0.26675273806465605	0.7630911967307862	0.04128151639376702	-0.12810672183944552	0.7587010521795365	0.003968739221488049	-0.1499007416766092	0.6013183433052255	0.07152773629120752	-0.13975719999037892	0.6052670156130772	0.013359680426219163	-0.21879032941435378	0.8547494174336228	-0.1905134600667474	0.6959479339813817	0.7651930244978238	-0.18340098311797837	0.2591254445125478	0.7792410259131481	-0.15971566027118006	-0.13225955496777622	0.7620993524528995	-0.15152914999839615	-0.13546281197290863	0.5963530838509438	-0.2094825329056607	-0.15515760765925474	0.6355778909669937	-0.1446479488503067	-0.2104999186911068	0.820737741931963	-0.10074167752024135	1.2001577279275246	0.7762298996550447	-0.10675856921944266	1.4616685805568022	0.7510338716677076	-0.1068090866983788	1.3197737276914852	0.7061066696192929	0.04703099039747893	1.1192349575120004	0.756973598288567	0.11666985445440772	0.8342874786761905	0.7579392689208596	0.1260559120705034	0.6175298187529957	0.6328351232698052	0.07082156201709544	0.4811059062343547	0.6572026800696003	0.1007241777674645	0.4527601695347882	0.6406848659625508	0.14085565333942254	0.46628909905567184	0.6358032146024115	-0.251539504346351	1.1218218262739479	0.8014742045670491	-0.29712973750314114	0.8526380206992867	0.7481698033511299	-0.2468837990641536	0.645518170563211	0.6617435350184693	-0.19507301043935732	0.5790594588499797	0.5898424831400533	-0.202508409338889	0.531702329926772	0.5699147768192627	-0.2567973776405159	0.5257146105125693	0.6445992940368761	
126	2.1	0.013568093481567928	0.7153070110163918	0.7446637614944744	0.03229144721984763	0.2629999356009267	0.7629810098557805	0.04150168033986496	-0.1280158416869502	0.7587399266996362	0.003985856175114983	-0.14996461527420346	0.6013972960730481	0.07151422799925358	-0.13986765042996693	0.6053932526616583	0.01351075871453659	-0.21893369412538952	0.854864677418923	-0.1901865192968876	0.695943191750523	0.764101731979344	-0.1836475854659197	0.2586932574773047	0.7790129338550973	-0.1595446915770523	-0.13302569131259573	0.7622305380802766	-0.15150198629052183	-0.13544460184384025	0.5964838914759545	-0.20940161747256125	-0.1547882689154049	0.6356142954684659	-0.14461220736495572	-0.2108359697529101	0.8208718433183203	-0.10144115157686803	1.200744057323988	0.7762223652827466	-0.10735437417028187	1.4618734174254358	0.748740379536841	-0.10751479970670402	1.3195836981929556	0.7059300799712394	0.04762866880598765	1.1188358396060543	0.7588295199755316	0.11899543950993874	0.8359927614177998	0.7560113615224475	0.13153167892374118	0.6159442898158438	0.6433392269046454	0.07641247854372749	0.4804527275478733	0.6696919355204484	0.10585949820036758	0.4565588061463885	0.6417123664977401	0.14616010828071344	0.46705664450306383	0.643752241297469	-0.25148023058009583	1.121718864874672	0.8017992264241176	-0.2998819865017531	0.8539797016882886	0.7513176891050419	-0.24963849321394155	0.6431731509554837	0.6665824269066181	-0.19768234222824677	0.5785443370302611	0.5886859734010457	-0.20360721149572464	0.5294734795113191	0.5714848647446731	-0.26087520401442416	0.5255590825565959	0.6452046364417809	
127	2.1166666666666667	0.014562234978923533	0.7149128591652271	0.7455012055577657	0.03298093396244359	0.2596674348757066	0.7628620932951476	0.04177578285726513	-0.1279388870871692	0.7588250874736077	0.004025219994779214	-0.14997018594220624	0.6014550956453745	0.07151926005240918	-0.13993358794420507	0.6054747805081617	0.013650362823950745	-0.21915731045714767	0.8549707290295672	-0.18991072840852102	0.6958658530126124	0.763201203672537	-0.18389993551829806	0.2582648603552895	0.7788393522406948	-0.15937062040747135	-0.13386439807243194	0.762350214087347	-0.15186759328077704	-0.13517388238437514	0.5974217857628752	-0.2092874638966687	-0.15417314973965024	0.6357007085748444	-0.14456155579871882	-0.21132431655008593	0.8210654944014151	-0.10225638961214728	1.201170254224921	0.776182353382415	-0.10798147823867471	1.4620957187433796	0.7462781807081458	-0.10776625299372766	1.3193695614244851	0.7059235420689056	0.04835703113266915	1.1183355544892286	0.761127980084337	0.12069410706078898	0.8372292576458982	0.7549152145032676	0.13634754466134777	0.6123655878415617	0.6575954409023659	0.08154930880159986	0.48100317813617	0.6789253058549825	0.11022472042495976	0.46127431349092995	0.642891061460862	0.15043950065846184	0.4658668542980148	0.6574330344585624	-0.2514084678145817	1.1216547858894867	0.8020284722355078	-0.3032733498207035	0.8550663728611309	0.7560560253890269	-0.2515630865214533	0.6422203001249003	0.6690857343440632	-0.1989483513703663	0.5780627382841456	0.5886719380902744	-0.20463956858206697	0.528656186683507	0.5732521318838981	-0.2646775053364538	0.5265756826535757	0.6443317828899612	
128	2.1333333333333333	0.015148745437153277	0.7144936442033503	0.746487514593648	0.03350359104338134	0.2569020970305585	0.7627762448420445	0.04212553832470255	-0.12799294073995962	0.7589494683822361	0.004086018368758803	-0.14989095727925925	0.6015467222155773	0.07155379105857611	-0.13993475887979273	0.6055259012019905	0.013772125996758786	-0.21943625121838306	0.8550471126302328	-0.18968103086658494	0.6957570954798781	0.7625164116407273	-0.18414484407834478	0.257839738342016	0.7786633005849983	-0.15919324156044615	-0.13474774905431436	0.7624587439145224	-0.15259973167876412	-0.13493680053117021	0.5992310860273932	-0.20914951559864503	-0.15340087781911402	0.6358272299787271	-0.14449592476566153	-0.21190437170234191	0.8213321789636715	-0.10307364166083846	1.2013942756455778	0.7760924670818679	-0.10855567114205111	1.462308961512701	0.743986500157328	-0.10781647207025485	1.3191737379878818	0.7061183651004195	0.049124593397654515	1.1177945066019022	0.7635812200992319	0.12176953794756576	0.8381655656350977	0.7543099708491443	0.1406010745978706	0.6078657748462649	0.6734990710722732	0.08600164761602533	0.4823216015219559	0.6848592343620596	0.11358596720496236	0.465425466861531	0.6461921984874999	0.15349459778842278	0.4628938357010534	0.6756938107901275	-0.2515562284574781	1.1217142406414706	0.8016802866574064	-0.3068574702255543	0.8558813718068923	0.7615893346091235	-0.25315294299566315	0.6422666550373194	0.6703597973167	-0.19961756946048392	0.5780089123665352	0.5893315604103446	-0.20579502246112616	0.5295116440185668	0.5752165854742628	-0.26834510229041053	0.5283935198019251	0.6428733412931565	
129	2.15	0.015316711957281764	0.714292235510934	0.747188189766983	0.033893775705224144	0.25466623865578025	0.7627501913198949	0.04257945630025738	-0.12826095848534544	0.759113271271337	0.0041527974590829676	-0.14976587660783966	0.6017838955178312	0.07162075969610093	-0.13986369683651267	0.6055664534409738	0.013877381232948984	-0.21975369983758752	0.8550706992894329	-0.18954743960550327	0.6956520404755029	0.7619918756840769	-0.18437239254590532	0.2573954069775011	0.7784366068531114	-0.15900879519126973	-0.13567437625773865	0.7625470069908178	-0.1535558190816416	-0.134978597573977	0.6016845837941082	-0.20900457982355233	-0.1525853056285863	0.6359753377575855	-0.14441114361207785	-0.21249188176288863	0.8216644309917296	-0.10378569897084766	1.2014496645289618	0.7759514484581211	-0.10899800207648508	1.4624818950437064	0.7421976574451965	-0.10788945825770407	1.3190681897407366	0.7062908368471306	0.049831782338615016	1.1172838327130679	0.7658684719743032	0.12230995808283812	0.8391215806318415	0.753628142784143	0.14421946356286122	0.6036829892814574	0.6885542235071175	0.08966956545670038	0.4838960951085333	0.688314592904482	0.11580124276693105	0.46828052990769575	0.6522387319199731	0.15513131132737054	0.45853405084277205	0.6964067086630676	-0.25210854887712225	1.121970961758006	0.8003849824315069	-0.3102939230427811	0.8564007672412242	0.7672054157831696	-0.2546846771526692	0.6428099081261336	0.6716379008825548	-0.20027145096431426	0.57849075704125	0.5900159561394123	-0.2071062961630207	0.5320260799516567	0.5774611871394478	-0.2716802935125787	0.5306299129653272	0.6419218789205201	
